<?xml version="1.0" encoding="UTF-8" standalone="no"?>
<!-- Created with Inkscape (http://www.inkscape.org/) -->

<svg
   width="538.20508"
   height="119.29626"
   viewBox="0 0 538.20508 119.29626"
   version="1.1"
   id="svg1"
   xmlns:xlink="http://www.w3.org/1999/xlink"
   xmlns="http://www.w3.org/2000/svg"
   xmlns:svg="http://www.w3.org/2000/svg">
  <defs
     id="defs1">
    <linearGradient
       id="linearGradient105">
      <stop
         style="stop-color:#006eff;stop-opacity:0.48235294;"
         offset="0"
         id="stop104" />
      <stop
         style="stop-color:#006eff;stop-opacity:0.22745098;"
         offset="1"
         id="stop105" />
    </linearGradient>
    <linearGradient
       id="linearGradient103">
      <stop
         style="stop-color:#000000;stop-opacity:1;"
         offset="0"
         id="stop102" />
      <stop
         style="stop-color:#ffffff;stop-opacity:0;"
         offset="1"
         id="stop103" />
    </linearGradient>
    <linearGradient
       xlink:href="#linearGradient105"
       id="linearGradient99"
       gradientUnits="userSpaceOnUse"
       gradientTransform="translate(314.29218,-309.17912)"
       x1="356.25427"
       y1="776.77777"
       x2="455.55051"
       y2="776.77777" />
    <linearGradient
       xlink:href="#linearGradient103"
       id="linearGradient100"
       gradientUnits="userSpaceOnUse"
       gradientTransform="matrix(1,0,0,0.97959184,-551.17888,-458.80054)"
       x1="1290.8734"
       y1="945.69916"
       x2="1296.1243"
       y2="945.69916" />
    <linearGradient
       xlink:href="#linearGradient103"
       id="linearGradient104"
       gradientUnits="userSpaceOnUse"
       gradientTransform="matrix(1,0,0,0.97959184,-1991.568,-1393.9978)"
       x1="1290.8734"
       y1="945.69916"
       x2="1296.1243"
       y2="945.69916" />
  </defs>
  <g
     id="layer1"
     transform="translate(-690.89746,-480.35186)">
    <g
       id="g1"
       transform="translate(30.351026,72.401375)">
      <g
         id="g105"
         style="display:inline">
        <rect
           style="fill:#006eff;fill-opacity:1;stroke:url(#linearGradient99);stroke-width:20;stroke-linecap:square;stroke-linejoin:round;stroke-dasharray:none;stroke-opacity:1;paint-order:stroke fill markers"
           id="rect73"
           width="99.296249"
           height="99.296249"
           x="670.54645"
           y="417.9505"
           ry="49.648125" />
        <rect
           style="fill:#ffffff;fill-opacity:1;stroke-width:1.32283;stroke-linecap:square;stroke-linejoin:round"
           id="rect74"
           width="23.999998"
           height="70"
           x="708.19452"
           y="432.59863"
           ry="4.666667" />
        <rect
           style="fill:#ffffff;fill-opacity:1;stroke-width:1.32284;stroke-linecap:square;stroke-linejoin:round"
           id="rect75"
           width="24"
           height="70"
           x="455.59863"
           y="-755.19452"
           ry="4.666667"
           transform="rotate(90)" />
        <path
           d="m 700.69531,455.09766 v 25 h 7.5 v -1.24219 l 24,-13.85547 v 15.09766 h 7.5 v -25 h -7.5 v 1.24414 l -24,13.85547 v -15.09961 z"
           style="fill:#006eff;fill-opacity:1;stroke-width:1.32283;stroke-linecap:square;stroke-linejoin:round"
           id="path104" />
        <rect
           style="opacity:0.362;fill:url(#linearGradient100);stroke:none;stroke-width:9.99997;stroke-linecap:square;stroke-linejoin:round;stroke-dasharray:none;stroke-opacity:1;paint-order:stroke fill markers"
           id="rect79"
           width="5.2509112"
           height="24"
           x="739.69452"
           y="455.59863" />
        <rect
           style="opacity:0.362;fill:url(#linearGradient104);stroke:none;stroke-width:9.99997;stroke-linecap:square;stroke-linejoin:round;stroke-dasharray:none;stroke-opacity:1;paint-order:stroke fill markers"
           id="rect80"
           width="5.2509112"
           height="24"
           x="-700.69452"
           y="-479.59863"
           transform="scale(-1)" />
      </g>
      <g
         id="g106"
         style="display:inline">
        <path
           d="m 946.34541,457.08041 c -2.86663,0 -5.37968,0.59828 -7.53872,1.79573 -2.15904,1.17931 -3.84603,2.95673 -5.06162,5.33349 -1.19744,2.35862 -1.79573,5.31686 -1.79573,8.87294 0,3.50164 0.6626,6.40427 1.98705,8.70846 1.3426,2.30419 3.18435,4.01897 5.52482,5.14385 2.35862,1.12489 5.06126,1.68665 8.10932,1.68665 2.34048,0 4.3266,-0.17218 5.95949,-0.5169 1.65103,-0.34472 3.23014,-0.88907 4.73603,-1.63294 v -6.42268 c -1.70547,0.7983 -3.36631,1.39657 -4.98106,1.79573 -1.61473,0.39915 -3.39216,0.59914 -5.33349,0.59914 -2.34047,0 -4.17351,-0.6626 -5.49797,-1.98706 -1.30631,-1.34261 -2.00375,-3.18434 -2.09446,-5.52481 h 19.62216 v -4.02781 c 0,-2.95735 -0.55474,-5.46001 -1.66147,-7.51019 -1.10675,-2.05019 -2.67546,-3.61021 -4.70751,-4.68066 -2.03204,-1.08859 -4.45464,-1.63294 -7.26684,-1.63294 z m 0.0553,5.9041 c 1.3063,0 2.37591,0.28173 3.2105,0.84417 0.85273,0.56243 1.48752,1.32419 1.90482,2.28578 0.43546,0.96158 0.66329,2.05899 0.68137,3.29273 h -11.64876 c 0.16328,-2.21348 0.77195,-3.83613 1.82425,-4.8703 1.07046,-1.03416 2.41307,-1.55238 4.02782,-1.55238 z"
           style="font-weight:bold;font-size:53.3333px;line-height:0;font-family:'Open Sans';-inkscape-font-specification:'Open Sans Bold';letter-spacing:1.47653px;word-spacing:0px;fill:#006eff;fill-opacity:1;stroke-width:1.08766;stroke-linecap:square;stroke-linejoin:round"
           id="path80" />
        <path
           style="font-weight:bold;font-size:53.3333px;line-height:0;font-family:'Open Sans';-inkscape-font-specification:'Open Sans Bold';letter-spacing:1.47653px;word-spacing:0px;fill:#006eff;fill-opacity:1;stroke-width:1.2658;stroke-linecap:square;stroke-linejoin:round"
           transform="matrix(1.0450504,0,0,1.0450504,300.62187,-340.88906)"
           d="m 598.2083,784.58519 c 0,1.97917 -0.46875,3.65451 -1.40625,5.02604 -0.92014,1.35417 -2.30035,2.38715 -4.14062,3.09896 -1.84028,0.69444 -4.13195,1.04166 -6.875,1.04166 -2.03125,0 -3.77604,-0.13021 -5.23437,-0.39062 -1.44097,-0.26042 -2.89931,-0.69445 -4.375,-1.30209 v -6.56249 c 1.57986,0.71181 3.27257,1.30208 5.07812,1.77083 1.82292,0.45139 3.42014,0.67708 4.79167,0.67708 1.54513,0 2.64756,-0.22569 3.30729,-0.67708 0.67708,-0.46875 1.01562,-1.07639 1.01562,-1.82292 0,-0.48611 -0.13889,-0.92013 -0.41667,-1.30208 -0.26041,-0.39931 -0.83333,-0.84201 -1.71874,-1.32812 -0.88542,-0.50347 -2.27431,-1.15452 -4.16667,-1.95313 -1.82291,-0.76389 -3.32465,-1.53645 -4.5052,-2.3177 -1.16319,-0.78125 -2.03125,-1.70139 -2.60417,-2.76042 -0.55555,-1.07639 -0.83333,-2.43923 -0.83333,-4.08854 0,-2.69097 1.04167,-4.71353 3.125,-6.0677 2.10069,-1.37153 4.90451,-2.05729 8.41145,-2.05729 1.80555,0 3.5243,0.18229 5.15625,0.54687 1.6493,0.36459 3.34201,0.94618 5.07812,1.74479 l -2.39583,5.72917 c -1.44097,-0.625 -2.80382,-1.13715 -4.08854,-1.53646 -1.26736,-0.39931 -2.56076,-0.59896 -3.88021,-0.59896 -1.16319,0 -2.03993,0.15625 -2.63021,0.46875 -0.59027,0.3125 -0.88541,0.78993 -0.88541,1.43229 0,0.46875 0.14757,0.88542 0.44271,1.25 0.3125,0.36459 0.90278,0.77257 1.77083,1.22396 0.88541,0.43403 2.17881,0.99826 3.8802,1.69271 1.64931,0.67708 3.0816,1.38888 4.29688,2.13541 1.21527,0.72917 2.15277,1.64062 2.8125,2.73437 0.65972,1.07639 0.98958,2.47396 0.98958,4.19271 z"
           id="path81" />
        <path
           style="font-weight:bold;font-size:53.3333px;line-height:0;font-family:'Open Sans';-inkscape-font-specification:'Open Sans Bold';letter-spacing:1.47653px;word-spacing:0px;fill:#006eff;fill-opacity:1;stroke-width:1.2658;stroke-linecap:square;stroke-linejoin:round"
           transform="matrix(1.0450504,0,0,1.0450504,300.62187,-340.88906)"
           d="m 568.08595,793.23102 h -7.9427 v -40.52081 h 7.9427 z"
           id="path82" />
        <path
           d="m 864.07233,457.08041 c -2.86662,0 -5.37967,0.59828 -7.53871,1.79573 -2.15905,1.17931 -3.84603,2.95673 -5.06162,5.33349 -1.19745,2.35862 -1.79573,5.31686 -1.79573,8.87294 0,3.50164 0.66259,6.40427 1.98705,8.70846 1.3426,2.30419 3.18434,4.01897 5.52482,5.14385 2.35862,1.12489 5.06126,1.68665 8.10932,1.68665 2.34047,0 4.32659,-0.17218 5.95948,-0.5169 1.65104,-0.34472 3.23015,-0.88907 4.73604,-1.63294 v -6.42268 c -1.70546,0.7983 -3.36632,1.39657 -4.98106,1.79573 -1.61475,0.39915 -3.39218,0.59914 -5.3335,0.59914 -2.34047,0 -4.17349,-0.6626 -5.49796,-1.98706 -1.3063,-1.34261 -2.00375,-3.18434 -2.09446,-5.52481 h 19.62215 v -4.02781 c 0,-2.95735 -0.55473,-5.46001 -1.66147,-7.51019 -1.10674,-2.05019 -2.67546,-3.61021 -4.7075,-4.68066 -2.03204,-1.08859 -4.45464,-1.63294 -7.26685,-1.63294 z m 0.0554,5.9041 c 1.30631,0 2.37592,0.28173 3.21051,0.84417 0.85272,0.56243 1.48752,1.32419 1.90481,2.28578 0.43547,0.96158 0.66329,2.05899 0.68137,3.29273 h -11.64876 c 0.16328,-2.21348 0.77194,-3.83613 1.82426,-4.8703 1.07046,-1.03416 2.41307,-1.55238 4.02781,-1.55238 z"
           style="font-weight:bold;font-size:53.3333px;line-height:0;font-family:'Open Sans';-inkscape-font-specification:'Open Sans Bold';letter-spacing:1.47653px;word-spacing:0px;fill:#006eff;fill-opacity:1;stroke-width:1.08766;stroke-linecap:square;stroke-linejoin:round"
           id="path83" />
        <path
           d="m 1168.2794,457.65102 c -2.3948,0 -4.4349,0.39998 -6.1222,1.19827 -1.6874,0.79831 -2.976,1.95835 -3.865,3.48238 -0.889,1.50588 -1.3342,3.33021 -1.3342,5.47112 0,2.01389 0.4817,3.78261 1.4432,5.30664 0.9798,1.50589 2.2494,2.57549 3.8097,3.21049 -1.2519,0.76202 -2.1858,1.56028 -2.8027,2.39487 -0.5987,0.81644 -0.8979,1.76947 -0.8979,2.85807 0,0.94344 0.2713,1.77822 0.8157,2.50396 0.5624,0.72573 1.2337,1.27008 2.0139,1.63294 -2.1047,0.43543 -3.7552,1.31543 -4.9525,2.63989 -1.1794,1.32446 -1.7689,2.92099 -1.7689,4.78974 0,2.63076 1.0609,4.67249 3.1836,6.12396 2.1228,1.46959 5.1436,2.20354 9.0626,2.20354 5.0801,0 8.9636,-0.88 11.6488,-2.6399 2.6852,-1.75989 4.0278,-4.29036 4.0278,-7.59241 0,-2.61264 -0.8713,-4.60043 -2.6131,-5.96117 -1.7236,-1.36075 -4.2088,-2.04075 -7.4565,-2.04075 h -5.2529 c -0.9434,0 -1.7505,-0.0713 -2.4217,-0.2165 -0.6714,-0.16329 -1.1895,-0.41888 -1.5524,-0.76361 -0.3447,-0.34472 -0.5169,-0.80734 -0.5169,-1.38791 0,-0.78016 0.2278,-1.46889 0.6814,-2.06761 0.4717,-0.59874 1.1518,-1.14307 2.0408,-1.63294 0.8708,0.14515 1.723,0.21817 2.5576,0.21817 3.5198,0 6.2868,-0.87129 8.3006,-2.61304 2.0139,-1.7599 3.0209,-4.12689 3.0209,-7.10238 0,-1.21559 -0.1809,-2.3234 -0.5438,-3.32126 -0.3628,-0.99788 -0.8168,-1.85007 -1.361,-2.55766 l 5.498,-0.6797 v -2.91345 h -10.2341 c -0.3628,-0.10886 -0.7889,-0.1993 -1.2788,-0.27187 -0.4899,-0.0907 -1.0064,-0.15333 -1.5507,-0.18964 -0.5261,-0.0544 -1.0531,-0.0822 -1.5793,-0.0822 z m -0.1627,3.34812 c 2.159,0 3.7921,0.56176 4.8988,1.68665 1.1068,1.10673 1.6598,2.77628 1.6598,5.0079 0,2.08647 -0.5443,3.67429 -1.633,4.76289 -1.0886,1.0886 -2.7129,1.63294 -4.8719,1.63294 -2.0865,0 -3.6918,-0.54434 -4.8166,-1.63294 -1.1249,-1.0886 -1.6867,-2.65029 -1.6867,-4.68233 0,-2.21348 0.5531,-3.89175 1.6599,-5.03476 1.1247,-1.16116 2.7213,-1.74035 4.7897,-1.74035 z m -2.3681,26.45264 h 5.1708 c 1.524,0 2.8127,0.10787 3.8649,0.32559 1.0523,0.19957 1.8506,0.59954 2.395,1.19827 0.5442,0.61688 0.8156,1.523 0.8156,2.72046 0,1.28816 -0.407,2.39595 -1.2235,3.32126 -0.7983,0.94344 -2.014,1.65997 -3.6468,2.14984 -1.6148,0.50801 -3.6565,0.76193 -6.1239,0.76193 -2.522,0 -4.4629,-0.4261 -5.8236,-1.27883 -1.3608,-0.8346 -2.0408,-2.05896 -2.0408,-3.6737 0,-1.2156 0.2627,-2.23295 0.7888,-3.04939 0.5443,-0.81644 1.3148,-1.43213 2.3127,-1.84943 0.9978,-0.4173 2.1682,-0.626 3.5108,-0.626 z"
           style="font-size:53.3333px;line-height:0;font-family:'Open Sans';-inkscape-font-specification:'Open Sans';letter-spacing:1.47653px;word-spacing:0px;fill:#006eff;fill-opacity:1;stroke-width:1.32283;stroke-linecap:square;stroke-linejoin:round"
           id="path84" />
        <path
           style="font-weight:normal;font-size:53.3333px;line-height:0;font-family:'Open Sans';-inkscape-font-specification:'Open Sans';letter-spacing:1.47653px;word-spacing:0px;fill:#006eff;fill-opacity:1;stroke-width:1.32283;stroke-linecap:square;stroke-linejoin:round"
           d="m 1136.9367,457.70557 q 5.3069,0 8.0283,2.61262 2.7215,2.58541 2.7215,8.32775 v 19.43139 h -4.4632 V 468.9453 q 0,-3.72843 -1.7146,-5.57904 -1.6873,-1.85061 -5.198,-1.85061 -4.9531,0 -6.967,2.80313 -2.0139,2.80313 -2.0139,8.13723 v 15.62132 h -4.5177 v -29.82746 h 3.6468 l 0.6804,4.29995 h 0.2449 q 0.9526,-1.57847 2.4222,-2.63984 1.4696,-1.08861 3.293,-1.6329 1.8233,-0.57151 3.8373,-0.57151 z"
           id="path85" />
        <path
           style="font-weight:normal;font-size:53.3333px;line-height:0;font-family:'Open Sans';-inkscape-font-specification:'Open Sans';letter-spacing:1.47653px;word-spacing:0px;fill:#006eff;fill-opacity:1;stroke-width:1.32283;stroke-linecap:square;stroke-linejoin:round"
           d="m 1109.5123,447.09179 q 1.1158,0 1.905,0.7348 0.8165,0.70759 0.8165,2.23161 0,1.49681 -0.8165,2.23162 -0.7892,0.7348 -1.905,0.7348 -1.1702,0 -1.9595,-0.7348 -0.762,-0.73481 -0.762,-2.23162 0,-1.52402 0.762,-2.23161 0.7893,-0.7348 1.9595,-0.7348 z"
           id="path86" />
        <path
           style="font-weight:normal;font-size:53.3333px;line-height:0;font-family:'Open Sans';-inkscape-font-specification:'Open Sans';letter-spacing:1.47653px;word-spacing:0px;fill:#006eff;fill-opacity:1;stroke-width:1.32283;stroke-linecap:square;stroke-linejoin:round"
           d="m 1111.7167,458.24987 v 29.82746 h -4.5177 v -29.82746 z"
           id="path87" />
        <path
           d="m 1076.3732,445.73038 v 42.3474 h 4.4894 v -10.80461 l 1.8108,-1.65979 7.3038,-7.16447 9.6096,-10.19875 h -5.3066 l -9.9068,10.55957 c -0.508,0.56244 -1.1341,1.3051 -1.8779,2.2304 -0.7257,0.92531 -1.2788,1.62443 -1.6598,2.09615 h -0.1897 c 0.036,-0.7983 0.082,-1.71482 0.136,-2.74898 0.054,-1.05231 0.081,-1.94102 0.081,-2.66676 v -21.99016 z"
           style="font-size:53.3333px;line-height:0;font-family:'Open Sans';-inkscape-font-specification:'Open Sans';letter-spacing:1.47653px;word-spacing:0px;fill:#006eff;fill-opacity:1;stroke-width:1.32283;stroke-linecap:square;stroke-linejoin:round"
           id="path88" />
        <path
           d="m 1089.0223,472.89461 -3.0529,3.05274 9.0459,12.13043 h 5.4425 z"
           style="font-size:53.3333px;line-height:0;font-family:'Open Sans';-inkscape-font-specification:'Open Sans';letter-spacing:1.47653px;word-spacing:0px;fill:#006eff;fill-opacity:1;stroke-width:1.32283;stroke-linecap:square;stroke-linejoin:round"
           id="path89" />
        <path
           d="m 1053.4113,457.70641 c -2.8484,0 -5.3059,0.60698 -7.3742,1.82258 -2.0502,1.19744 -3.6294,2.94874 -4.7361,5.25293 -1.1067,2.28606 -1.6598,5.06173 -1.6598,8.32751 0,2.44933 0.327,4.63543 0.9801,6.55861 0.6714,1.92318 1.6053,3.54752 2.8027,4.87197 1.2157,1.32446 2.6488,2.34013 4.2998,3.04772 1.6692,0.68944 3.5022,1.0338 5.4979,1.0338 2.1409,0 4.054,-0.34436 5.7413,-1.0338 1.7054,-0.70759 3.1576,-1.72326 4.3551,-3.04772 1.1974,-1.32445 2.1139,-2.94879 2.7489,-4.87197 0.635,-1.92318 0.9516,-4.10928 0.9516,-6.55861 0,-3.24764 -0.5704,-6.01461 -1.7135,-8.30066 -1.1248,-2.30419 -2.7127,-4.06419 -4.7629,-5.27978 -2.032,-1.2156 -4.4094,-1.82258 -7.1309,-1.82258 z m -0.1091,3.80963 c 2.1047,0 3.8194,0.47133 5.1439,1.41477 1.3244,0.94345 2.3053,2.28606 2.9403,4.02781 0.635,1.7236 0.9516,3.77404 0.9516,6.15081 0,2.3949 -0.3166,4.47146 -0.9516,6.23135 -0.635,1.75989 -1.6246,3.1216 -2.9672,4.08319 -1.3245,0.96159 -3.0201,1.44163 -5.0885,1.44163 -2.0864,0 -3.7924,-0.48004 -5.1169,-1.44163 -1.3245,-0.96159 -2.3036,-2.3233 -2.9387,-4.08319 -0.635,-1.75989 -0.9532,-3.83645 -0.9532,-6.23135 0,-3.62865 0.7166,-6.46864 2.1498,-8.51883 1.4515,-2.05018 3.728,-3.07456 6.8305,-3.07456 z"
           style="font-size:53.3333px;line-height:0;font-family:'Open Sans';-inkscape-font-specification:'Open Sans';letter-spacing:1.47653px;word-spacing:0px;fill:#006eff;fill-opacity:1;stroke-width:1.32283;stroke-linecap:square;stroke-linejoin:round"
           id="path90" />
        <path
           d="m 1018.3392,457.70641 c -2.8485,0 -5.3059,0.60698 -7.3743,1.82258 -2.0502,1.19744 -3.6293,2.94874 -4.7361,5.25293 -1.1067,2.28606 -1.6597,5.06173 -1.6597,8.32751 0,2.44933 0.3269,4.63543 0.9801,6.55861 0.6712,1.92318 1.6052,3.54752 2.8026,4.87197 1.2156,1.32446 2.6487,2.34013 4.2997,3.04772 1.6692,0.68944 3.5023,1.0338 5.498,1.0338 2.1409,0 4.0557,-0.34436 5.743,-1.0338 1.7055,-0.70759 3.1559,-1.72326 4.3534,-3.04772 1.1974,-1.32445 2.1139,-2.94879 2.749,-4.87197 0.635,-1.92318 0.9532,-4.10928 0.9532,-6.55861 0,-3.24764 -0.5721,-6.01461 -1.7151,-8.30066 -1.1249,-2.30419 -2.7127,-4.06419 -4.7629,-5.27978 -2.0321,-1.2156 -4.4095,-1.82258 -7.1309,-1.82258 z m -0.1074,3.80963 c 2.1046,0 3.8177,0.47133 5.1422,1.41477 1.3243,0.94345 2.3052,2.28606 2.9402,4.02781 0.6351,1.7236 0.9516,3.77404 0.9516,6.15081 0,2.3949 -0.3165,4.47146 -0.9516,6.23135 -0.635,1.75989 -1.6245,3.1216 -2.9671,4.08319 -1.3245,0.96159 -3.0202,1.44163 -5.0885,1.44163 -2.0865,0 -3.7925,-0.48004 -5.117,-1.44163 -1.3244,-0.96159 -2.3037,-2.3233 -2.9386,-4.08319 -0.635,-1.75989 -0.9532,-3.83645 -0.9532,-6.23135 0,-3.62865 0.7164,-6.46864 2.1498,-8.51883 1.4514,-2.05018 3.7297,-3.07456 6.8322,-3.07456 z"
           style="font-size:53.3333px;line-height:0;font-family:'Open Sans';-inkscape-font-specification:'Open Sans';letter-spacing:1.47653px;word-spacing:0px;fill:#006eff;fill-opacity:1;stroke-width:1.32283;stroke-linecap:square;stroke-linejoin:round"
           id="path91" />
        <path
           d="m 969.361,448.28971 v 39.78807 h 13.68954 c 2.8304,0 5.2791,-0.42611 7.3474,-1.27883 2.0683,-0.87089 3.6648,-2.15086 4.7897,-3.83817 1.1431,-1.68733 1.7152,-3.75518 1.7152,-6.20451 0,-2.01389 -0.3808,-3.67475 -1.1429,-4.98106 -0.762,-1.30631 -1.8142,-2.32198 -3.1568,-3.04771 -1.3426,-0.72573 -2.8851,-1.22485 -4.627,-1.497 v -0.27188 c 1.6511,-0.30844 3.039,-0.8615 4.1639,-1.6598 1.1248,-0.7983 1.9787,-1.80526 2.5593,-3.02085 0.5987,-1.23374 0.8978,-2.62158 0.8978,-4.16376 0,-3.57421 -1.2521,-6.10635 -3.7559,-7.5941 -2.5037,-1.48774 -6.2412,-2.2304 -11.2124,-2.2304 z m 4.62694,3.94558 h 6.8591 c 3.4653,0 5.9871,0.49913 7.5656,1.49701 1.5965,0.99788 2.3948,2.63093 2.3948,4.89882 0,2.19532 -0.6713,3.86488 -2.0139,5.00791 -1.3245,1.14302 -3.7193,1.7135 -7.1846,1.7135 h -7.621 z m 0,17.00911 h 7.866 c 2.4674,0 4.4346,0.29044 5.9041,0.87101 1.4877,0.56245 2.559,1.37981 3.2122,2.45025 0.6713,1.07045 1.0069,2.35745 1.0069,3.86335 0,2.35862 -0.7356,4.23688 -2.2052,5.6339 -1.4696,1.37889 -3.9722,2.06761 -7.5101,2.06761 h -8.2739 z"
           style="font-size:53.3333px;line-height:0;font-family:'Open Sans';-inkscape-font-specification:'Open Sans';letter-spacing:1.47653px;word-spacing:0px;fill:#006eff;fill-opacity:1;stroke-width:1.32283;stroke-linecap:square;stroke-linejoin:round"
           id="path92" />
        <path
           d="m 1193.5271,478.95982 c -2.8948,0 -5.2261,2.33129 -5.2261,5.22608 0,2.89479 2.3313,5.22441 5.2261,5.22441 2.8949,0 5.2244,-2.32962 5.2244,-5.22441 0,-2.89479 -2.3295,-5.22608 -5.2244,-5.22608 z"
           style="fill:#808080;stroke-width:20;stroke-linecap:square;stroke-linejoin:round;paint-order:stroke fill markers"
           id="path93" />
        <path
           d="m 807.99178,448.28971 v 39.78807 h 8.43658 v -11.63199 l 15.75714,-9.09949 v 20.73148 h 8.40973 v -39.78807 h -8.40973 v 11.61688 l -15.75714,9.09614 v -20.71302 z"
           style="font-weight:bold;font-size:53.3333px;line-height:0;font-family:'Open Sans';-inkscape-font-specification:'Open Sans Bold';letter-spacing:1.47653px;word-spacing:0px;fill:#006eff;fill-opacity:1;stroke-width:1.08766;stroke-linecap:square;stroke-linejoin:round"
           id="path94" />
      </g>
    </g>
  </g>
</svg>
